<svg width="140" height="39" viewBox="0 0 140 39" fill="none" xmlns="http://www.w3.org/2000/svg">
<path d="M20.0473 35.6579C17.9552 36.0248 15.8262 36.1348 13.624 36.4278L6.90672 16.7789V37.2711C4.81459 37.491 2.90595 37.7843 0.923828 38.0775V0.539062H6.5032L14.1378 21.8381V0.539062H20.0473V35.6579ZM31.6096 14.2861C33.8855 14.2861 37.3724 14.1761 39.4646 14.1761V20.0413C36.8584 20.0413 33.812 20.0413 31.6096 20.1513V28.8762C35.06 28.6564 38.5103 28.3628 41.9971 28.2528V33.8979L25.7366 35.1812V0.539062H41.9971V6.40446H31.6096V14.2861ZM63.8368 6.40459H57.7438V33.3853C55.7617 33.3853 53.7796 33.3853 51.8712 33.4584V6.40459H45.7782V0.539062H63.8371L63.8368 6.40459ZM73.3802 13.8829H81.4188V19.7482H73.3802V33.0554H67.617V0.539062H84.0249V6.40446H73.3802V13.8829ZM93.5682 27.9231C96.9085 27.9962 100.285 28.2532 103.552 28.4362V34.2283C98.3033 33.8982 93.0544 33.5687 87.6955 33.4584V0.539062H93.5682V27.9231ZM108.507 34.6316C110.379 34.7418 112.361 34.8518 114.27 35.0714V0.539062H108.507V34.6316ZM140.001 0.539062L132.549 18.3919L140.001 38.0775C137.798 37.7843 135.596 37.381 133.393 37.0143L129.173 26.1636L124.878 36.1348C122.749 35.7679 120.694 35.6579 118.565 35.3646L126.126 18.1717L119.299 0.539062H125.612L129.466 10.4003L133.577 0.539062H140.001Z" fill="#D81F26"/>
</svg>
